PathFileType	4	(X/Y/Z)	8_coords_data.trc
DataRate	CameraRate	NumFrames	NumMarkers	Units	OrigDataRate	OrigDataStartFrame	OrigNumFrames
30.0	30.0	8	21	m	30.0	19	56
Frame#	Time	THUMB_TIP	THUMB_IP	THUMB_MCP	THUMB_CMC	INDEX_TIP	INDEX_DIP	INDEX_PIP	INDEX_MCP	MIDDLE_TIP	MIDDLE_DIP	MIDDLE_PIP	MIDDLE_MCP	RING_TIP	RING_DIP	RING_PIP	RING_MCP	PINKY_TIP	PINKY_DIP	PINKY_PIP	PINKY_MCP	WRIST
X1	Y1	Z1	X2	Y2	Z2	X3	Y3	Z3	X4	Y4	Z4	X5	Y5	Z5	X6	Y6	Z6	X7	Y7	Z7	X8	Y8	Z8	X9	Y9	Z9	X10	Y10	Z10	X11	Y11	Z11	X12	Y12	Z12	X13	Y13	Z13	X14	Y14	Z14	X15	Y15	Z15	X16	Y16	Z16	X17	Y17	Z17	X18	Y18	Z18	X19	Y19	Z19	X20	Y20	Z20	X21	Y21	Z21
18	0.6	-0.04482590103149414	-0.05771630096435547	0.947822021484375	-0.034731800079345704	-0.0438932991027832	0.9666669921875	-0.02906410026550293	-0.030905799865722658	0.9893909912109375	-0.04210810089111328	-0.010126700401306152	1.0029099731445312	-0.007937849998474121	-0.1349250030517578	0.9787880249023437	-0.013344599723815917	-0.11483399963378907	0.9846290283203125	-0.021185300827026368	-0.09844090270996093	0.99347998046875	-0.03666159820556641	-0.06785430145263673	1.0081199951171875	-0.038731899261474606	-0.04453630065917969	0.984260009765625	-0.03581019973754883	-0.058044898986816404	0.972531982421875	-0.04081610107421875	-0.08122789764404297	0.9734149780273438	-0.05977840042114258	-0.06942630004882812	1.0071300048828125	-0.04841859817504883	-0.04224969863891601	0.97206201171875	-0.05124900054931641	-0.059050498962402345	0.9636840209960937	-0.06275289916992187	-0.07920169830322266	0.9681339721679687	-0.07238800048828126	-0.06197420120239258	0.9948369750976562	-0.10863300323486329	-0.1031729965209961	0.9685889892578124	-0.10020999908447266	-0.08507879638671875	0.9734739990234375	-0.09358719635009766	-0.0717311019897461	0.97835302734375	-0.08125769805908203	-0.05046060180664062	0.9831619873046875	-0.06555319976806641	0.001141180038452148	1.0263399658203125
19	0.6333333333333333	-0.04543299865722656	-0.05774900054931641	0.9477009887695312	-0.03513990020751953	-0.04383340072631836	0.9665770263671875	-0.029548900604248047	-0.030937299728393555	0.989322021484375	-0.04255509948730469	-0.010108200073242188	1.0028699951171876	-0.008396260261535645	-0.13506399536132813	0.978833984375	-0.013777899742126464	-0.11497100067138671	0.9845989990234375	-0.02162750053405762	-0.09856890106201172	0.9934219970703125	-0.03705530166625977	-0.06787680053710937	1.0079199829101562	-0.03946939849853515	-0.04485240173339844	0.9847990112304688	-0.03645669937133789	-0.05807149887084961	0.9722269897460938	-0.04135079956054687	-0.08126290130615234	0.9732589721679688	-0.060241600036621094	-0.06951679992675781	1.00697998046875	-0.0489911994934082	-0.042481998443603515	0.971698974609375	-0.05175239944458008	-0.05910200119018555	0.963593994140625	-0.06325759887695312	-0.07921530151367187	0.9679849853515625	-0.07283889770507812	-0.06202420043945313	0.9946329956054687	-0.109375	-0.1030009994506836	0.9683040161132812	-0.1007979965209961	-0.08494879913330078	0.9732940063476563	-0.09419149780273438	-0.071654296875	0.9782999877929688	-0.08174590301513672	-0.05046149826049805	0.9830650024414063	-0.06606400299072265	0.001138829946517944	1.02631005859375
20	0.6666666666666666	-0.04558420181274414	-0.05792449951171875	0.9478679809570313	-0.03542100143432617	-0.044094600677490235	0.9665360107421875	-0.029865400314331055	-0.03114609909057617	0.9894749755859376	-0.04270169830322266	-0.010418000221252442	1.0030800170898437	-0.008333569526672363	-0.13524600219726562	0.9791619873046875	-0.013757100105285644	-0.11516899871826172	0.9848460083007813	-0.02168090057373047	-0.09876010131835937	0.9936329956054688	-0.03720610046386719	-0.06811440277099609	1.008	-0.039597301483154296	-0.045183601379394533	0.9853270263671875	-0.036524200439453126	-0.05830920028686523	0.9724559936523437	-0.041406299591064455	-0.08149530029296875	0.97347998046875	-0.06031560134887695	-0.06988079833984374	1.0072899780273437	-0.04908769989013672	-0.04273849868774414	0.9718670043945312	-0.051872798919677734	-0.059341999053955076	0.9637969970703125	-0.06340620040893555	-0.07943129730224609	0.9681589965820312	-0.07301139831542969	-0.062307701110839844	0.9948159790039063	-0.10973799896240234	-0.10314499664306641	0.9683989868164062	-0.10109200286865234	-0.08516539764404298	0.9733729858398438	-0.09444599914550782	-0.07182270050048828	0.9784420166015625	-0.08193440246582032	-0.05081259918212891	0.9832360229492187	-0.06630549621582031	0.000713306009769439	1.0263599853515626
21	0.7	-0.04570700073242188	-0.05791559982299805	0.947833984375	-0.035486499786376954	-0.044151699066162106	0.9664879760742188	-0.02990340042114258	-0.031357000350952145	0.9893670043945313	-0.04287860107421875	-0.010564000129699706	1.0031099853515626	-0.008499059677124023	-0.13538800048828126	0.9790150146484375	-0.013953200340270996	-0.11527899932861328	0.9847459716796875	-0.02186240005493164	-0.09888809967041015	0.9935609741210938	-0.03734489822387695	-0.06828479766845703	1.007989990234375	-0.03972140121459961	-0.04515129852294922	0.98489599609375	-0.036683998107910155	-0.058452301025390625	0.9724990234375	-0.04157469940185547	-0.08157969665527344	0.973343994140625	-0.06045949935913086	-0.07002839660644532	1.007010009765625	-0.049310798645019534	-0.04275659942626953	0.9718140258789062	-0.05199489974975586	-0.05937229919433594	0.9636110229492187	-0.06350510025024414	-0.07942130279541015	0.9679429931640625	-0.0731343002319336	-0.06237570190429687	0.9946409912109375	-0.10983899688720702	-0.10309400177001952	0.9680650024414063	-0.1012030029296875	-0.08513870239257812	0.9730029907226563	-0.09455809783935547	-0.07187920379638672	0.9781179809570313	-0.08206449890136719	-0.05081529998779297	0.9830650024414063	-0.06646790313720703	0.000665225982666015	1.02647998046875
22	0.7333333333333333	-0.04621969985961914	-0.05770880126953125	0.9475460205078124	-0.0359828987121582	-0.044048500061035153	0.9663740234375	-0.030322799682617186	-0.0311875	0.9892410278320313	-0.04338769912719727	-0.010469099998474122	1.0029000244140625	-0.00892372989654541	-0.13521600341796874	0.9783099975585937	-0.014386500358581543	-0.1150989990234375	0.9841580200195312	-0.022285299301147463	-0.09878780364990235	0.9930830078125	-0.03779970169067383	-0.06827420043945312	1.0076599731445313	-0.040008598327636716	-0.04497639846801758	0.9847639770507812	-0.03695759963989258	-0.05846239852905273	0.972114990234375	-0.04212080001831055	-0.08148590087890625	0.9729639892578125	-0.060831699371337894	-0.07001170349121094	1.0068099975585938	-0.04963560104370117	-0.04249380111694336	0.97135498046875	-0.0524989013671875	-0.05917660140991211	0.9632109985351562	-0.06403309631347656	-0.07932360076904296	0.9676909790039062	-0.07361579895019531	-0.06232320022583008	0.9943920288085938	-0.11048600006103515	-0.10301999664306641	0.9679030151367187	-0.10175499725341797	-0.08503749847412109	0.972905029296875	-0.09508390045166015	-0.07180709838867187	0.9780029907226563	-0.08254429626464843	-0.050729198455810545	0.9828189697265625	-0.06686319732666016	0.000744026005268096	1.026449951171875
23	0.7666666666666667	-0.04645349884033203	-0.05783649826049805	0.9473499755859375	-0.0363302001953125	-0.044087299346923826	0.9661849975585938	-0.030772899627685545	-0.03129859924316406	0.9890689697265626	-0.04370000076293945	-0.010523900032043457	1.0028200073242188	-0.009292590141296386	-0.13530299377441407	0.97822998046875	-0.014714300155639648	-0.115197998046875	0.9840709838867188	-0.022599899291992187	-0.09887650299072266	0.992926025390625	-0.03802510070800781	-0.06835990142822265	1.0075	-0.040264198303222656	-0.04515060043334961	0.9844550170898437	-0.037541900634765625	-0.05848220062255859	0.97189599609375	-0.04243349838256836	-0.08148419952392578	0.972822021484375	-0.0611952018737793	-0.07008709716796875	1.0065800170898438	-0.04995899963378906	-0.04260160064697266	0.9712470092773438	-0.05279199981689453	-0.05919509887695312	0.96314501953125	-0.06438349914550781	-0.07936869812011718	0.9676199951171875	-0.07395320129394531	-0.062407798767089843	0.9943060302734374	-0.1107249984741211	-0.1031240005493164	0.9678709716796875	-0.10203800201416016	-0.08515180206298828	0.9728300170898437	-0.09543830108642579	-0.07194550323486328	0.977875	-0.08292569732666015	-0.050853099822998044	0.9828270263671876	-0.06706169891357422	0.0006070410013198851	1.0263599853515626
24	0.8	-0.04639080047607422	-0.0578130989074707	0.9473270263671875	-0.036331501007080075	-0.04413169860839844	0.9662479858398437	-0.030795299530029296	-0.03133419990539551	0.989052978515625	-0.04381110000610351	-0.010614399909973144	1.0027899780273437	-0.009223620414733886	-0.13526499938964845	0.9780819702148438	-0.014689200401306153	-0.115177001953125	0.984	-0.022602100372314454	-0.09887840270996094	0.9928690185546875	-0.03807360076904297	-0.06842710113525391	1.0074500122070313	-0.04056969833374023	-0.045147701263427736	0.9848590087890625	-0.037445201873779296	-0.05845330047607422	0.9719240112304688	-0.04242779922485351	-0.08152320098876953	0.9728140258789062	-0.061173301696777344	-0.07015270233154297	1.0065900268554688	-0.05000400161743164	-0.04276060104370117	0.971010986328125	-0.05278969955444336	-0.05922499847412109	0.9630850219726562	-0.06431069946289063	-0.07940589904785156	0.9674390258789063	-0.07394429779052734	-0.06248030090332031	0.9942340087890625	-0.11070099639892578	-0.103197998046875	0.9677509765625	-0.10202300262451172	-0.08521730041503907	0.9727529907226562	-0.09535060119628906	-0.07197470092773438	0.9776160278320313	-0.08289459991455078	-0.05087189865112305	0.9827340087890625	-0.06726760101318359	0.0005392799973487851	1.0263900146484375
25	0.8333333333333334	-0.0465177001953125	-0.057748100280761716	0.947083984375	-0.036413700103759765	-0.04406460189819336	0.9658909912109375	-0.030860000610351563	-0.03130710029602051	0.9888300170898437	-0.04385449981689453	-0.010600099563598633	1.0026199951171875	-0.00912771987915039	-0.13510299682617188	0.9774819946289063	-0.014640199661254882	-0.11507199859619141	0.9834530029296875	-0.02259149932861328	-0.09882279968261719	0.9924669799804687	-0.03812310028076172	-0.06843270111083985	1.0071900024414062	-0.04045930099487305	-0.0451869010925293	0.9840349731445313	-0.03760710144042969	-0.05840700149536133	0.9716580200195313	-0.04248149871826172	-0.08148269653320313	0.9724439697265626	-0.06120869827270508	-0.0701448974609375	1.0063300170898437	-0.05004740142822266	-0.04248659896850586	0.9709669799804688	-0.05291159820556641	-0.059247798919677734	0.962864013671875	-0.06446849822998046	-0.07940299987792969	0.9672130126953125	-0.07402059936523438	-0.0624744987487793	0.9940009765625	-0.11073600006103515	-0.10319499969482422	0.9674710083007813	-0.10208799743652344	-0.08522820281982423	0.9724849853515625	-0.09552100372314454	-0.07202120208740234	0.9774600219726562	-0.08302269744873046	-0.05090530014038086	0.9825449829101562	-0.06721890258789062	0.00036967900395393303	1.026030029296875
